PathFileType	4	(X/Y/Z)	E:\Studenten\Marcel_BSc\Simon_27_12_2024\27-12-2024\static_00.trc
DataRate	CameraRate	NumFrames	NumMarkers	Units	OrigDataRate	OrigDataStartFrame	OrigNumFrames
200.0	200.0	4	63	mm	200.0	274	175	
Frame#	Time	FHD			LBHD			RBHD			RBAR			LBAR			RASI			RSACR			LSACR			LASI			USACR			C7			CLAV			T10			RSHO			LSHO			LTHI1			LTHI3			LTHI2			LTHI4			LLFC			LMFC			LTIB1			LTIB2			LTIB3			LTIB4			LMMAL			LLMAL			LHEE			LMT1			LMT5			LMT3			RTHI1			RTHI3			RTHI2			RTHI4			RLFC			RMFC			RTIB1			RTIB3			RTIB2			RTIB4			RLMAL			RMMAL			RHEE			RMT5			RMT1			RMT3			LMEP			LLEP			LDUPA			LMUPA			LUUPA			LUL			LRAD			LRFIN			RUL			RRAD			RUFIN			RMEP			RDUPA			RUUPA			RLEP			RMUPA			
		X1	Y1	Z1	X2	Y2	Z2	X3	Y3	Z3	X4	Y4	Z4	X5	Y5	Z5	X6	Y6	Z6	X7	Y7	Z7	X8	Y8	Z8	X9	Y9	Z9	X10	Y10	Z10	X11	Y11	Z11	X12	Y12	Z12	X13	Y13	Z13	X14	Y14	Z14	X15	Y15	Z15	X16	Y16	Z16	X17	Y17	Z17	X18	Y18	Z18	X19	Y19	Z19	X20	Y20	Z20	X21	Y21	Z21	X22	Y22	Z22	X23	Y23	Z23	X24	Y24	Z24	X25	Y25	Z25	X26	Y26	Z26	X27	Y27	Z27	X28	Y28	Z28	X29	Y29	Z29	X30	Y30	Z30	X31	Y31	Z31	X32	Y32	Z32	X33	Y33	Z33	X34	Y34	Z34	X35	Y35	Z35	X36	Y36	Z36	X37	Y37	Z37	X38	Y38	Z38	X39	Y39	Z39	X40	Y40	Z40	X41	Y41	Z41	X42	Y42	Z42	X43	Y43	Z43	X44	Y44	Z44	X45	Y45	Z45	X46	Y46	Z46	X47	Y47	Z47	X48	Y48	Z48	X49	Y49	Z49	X50	Y50	Z50	X51	Y51	Z51	X52	Y52	Z52	X53	Y53	Z53	X54	Y54	Z54	X55	Y55	Z55	X56	Y56	Z56	X57	Y57	Z57	X58	Y58	Z58	X59	Y59	Z59	X60	Y60	Z60	X61	Y61	Z61	X62	Y62	Z62	X63	Y63	Z63	
274	1.365	116.49928	1728.7751	-930.76141	286.00998	1696.5082	-852.79901	241.67731	1725.3698	-1005.8021	2013.7494	28.057159	-2007.8716	1903.3821	23.721004	212.65877	156.45042	969.78827	-1062.4982	346.02112	977.16492	-958.51538	343.59018	973.0918	-916.20197	151.44075	974.0462	-813.28333	336.70184	985.81006	-933.43353	319.3197	1480.6786	-924.6015	163.03735	1432.2944	-925.11505	331.20163	1169.2488	-934.62799	298.92087	1467.2323	-1086.2388	285.47998	1461.1998	-764.04034	220.58084	813.3866	-732.63019	187.94057	790.63525	-732.6701	235.18053	774.38953	-724.23712	190.03284	726.24103	-724.3407	260.32153	499.32938	-743.25677	235.26755	469.64752	-847.79761	319.22086	416.5033	-731.09967	295.47772	378.05267	-714.76874	342.59232	366.63947	-727.92169	308.7236	313.81589	-709.86432	251.67802	96.94487	-822.45819	282.05942	76.693375	-736.71393	331.20093	35.499008	-786.22009	111.26802	41.026257	-775.06512	155.16635	29.487886	-703.80756	128.85645	33.427444	-724.66089	207.50702	817.29163	-1143.4249	160.99792	781.60382	-1130.4211	208.22908	784.586	-1148.6023	187.46834	721.68701	-1146.0698	255.21582	500.66925	-1124.5016	241.739	482.84045	-1003.0688	306.01556	433.07922	-1136.8138	339.29248	382.92102	-1142.5298	289.06064	385.64423	-1154.4435	311.92728	323.85446	-1155.5337	287.91431	82.884438	-1132.2277	248.6949	100.28863	-1049.7041	328.37192	33.239738	-1073.6965	172.45398	28.922735	-1181.8634	119.2088	45.821838	-1119.1725	130.73557	35.029469	-1159.8734	213.80434	1296.02	-502.80618	272.1293	1394.6611	-489.59732	304.78781	1388.3763	-564.09595	323.40121	1381.0509	-623.04041	297.35706	1421.8496	-635.55811	226.19455	1363.8926	-232.77289	167.58162	1341.5342	-247.62119	156.95622	1351.589	-153.46059	245.93941	1395.3771	-1608.0165	195.78008	1400.2212	-1592.6971	180.10852	1400.0039	-1697.7483	231.95586	1299.2471	-1358.0579	285.42822	1431.4525	-1284.5288	314.38974	1424.9381	-1210.2577	283.36151	1401.6562	-1363.5586	320.44257	1399.7482	-1267.1665
275	1.37	116.5126	1728.7897	-930.78943	286.02359	1696.5098	-852.81317	241.68553	1725.3615	-1005.83	2013.7761	28.044891	-2007.8752	1903.4335	23.623819	212.50803	156.44275	969.78558	-1062.5161	346.01538	977.15662	-958.52393	343.5618	973.07214	-916.22052	151.43648	974.02972	-813.29181	336.53247	985.71515	-933.38281	319.33539	1480.6826	-924.59369	163.02899	1432.2908	-925.12384	331.18793	1169.234	-934.61163	298.92935	1467.2188	-1086.2389	285.45328	1461.198	-764.04059	220.56453	813.37726	-732.64392	187.93289	790.6225	-732.68317	235.17574	774.39771	-724.2467	190.00461	726.22974	-724.35669	260.31558	499.33124	-743.26862	235.24631	469.64697	-847.81818	319.23465	416.50122	-731.10126	295.47177	378.05539	-714.77087	342.60004	366.61203	-727.94849	308.73639	313.81604	-709.85657	251.64751	97.063683	-822.73059	282.04037	76.697578	-736.73938	331.20316	35.501026	-786.22119	111.26299	41.021805	-775.07202	155.16243	29.486597	-703.81213	128.81271	33.581402	-724.56848	207.49069	817.29388	-1143.4402	160.98798	781.60193	-1130.442	208.25073	784.5412	-1148.6199	187.47523	721.68079	-1146.0945	255.2205	500.66693	-1124.5067	241.73396	482.84622	-1003.0828	306.02414	433.07773	-1136.8138	339.28903	382.92923	-1142.5205	289.06406	385.62668	-1154.4218	311.93576	323.85742	-1155.5399	287.91418	82.886169	-1132.2235	248.69443	100.28483	-1049.7094	328.36499	33.225212	-1073.7057	172.46571	28.90547	-1181.8623	119.20636	45.822048	-1119.1713	130.74017	35.008434	-1159.8647				272.10278	1394.6443	-489.60422	304.73544	1388.3583	-564.09082	323.38312	1381.052	-623.03821	297.3223	1421.8451	-635.54431	226.22588	1363.839	-232.77629	167.60544	1341.4789	-247.61745	157.25273	1351.3514	-153.45233	245.98004	1395.3981	-1608.0243	195.82446	1400.2498	-1592.7054	180.15868	1400.0332	-1697.7637	232.06075	1298.9991	-1358.0148	285.43298	1431.4574	-1284.5181	314.37845	1424.9321	-1210.2576	283.36108	1401.6423	-1363.553	320.43213	1399.74	-1267.1632
276	1.375	116.53246	1728.8066	-930.83582	286.03113	1696.5118	-852.83502	241.71056	1725.3585	-1005.847	2013.7565	28.073101	-2007.8871	1903.4069	23.667074	212.56752	156.43135	969.78326	-1062.5349	346.01257	977.16205	-958.53253	343.55811	973.08704	-916.22443	151.403	974.01501	-813.31616	336.51059	985.71222	-933.3924	319.34863	1480.6671	-924.59937	163.01903	1432.2856	-925.12299	331.17957	1169.24	-934.58942	298.93008	1467.2067	-1086.2306	285.43387	1461.1947	-764.03796	220.55275	813.38593	-732.65845	187.89861	790.65399	-732.69916	235.22052	774.43494	-724.21082	190.01413	726.23206	-724.37415	260.31189	499.32819	-743.27087	235.51494	469.60159	-847.56671	319.2251	416.50687	-731.10162	295.46637	378.06509	-714.78278	342.60587	366.66681	-727.89172	308.71124	313.83963	-709.85236	251.63991	96.951851	-822.52704	282.04504	76.687241	-736.72217	331.19833	35.500462	-786.22931	111.26472	41.025307	-775.07074	155.16638	29.487581	-703.82587	128.81613	33.576588	-724.58112	207.48909	817.28888	-1143.4537	160.97247	781.59369	-1130.4656	208.0191	784.87195	-1148.9852	187.46371	721.67291	-1146.1035	255.23016	500.66312	-1124.5109	241.72995	482.84937	-1003.0964	306.03549	433.07339	-1136.8197	339.29846	382.92758	-1142.5231	289.09198	385.63522	-1154.4329	311.95447	323.8475	-1155.5272	287.9176	82.885826	-1132.2263	248.7038	100.28285	-1049.7053	328.37082	33.237942	-1073.6996	172.46629	28.898321	-1181.864	119.20699	45.824215	-1119.1648	130.74858	35.010132	-1159.8638	214.02245	1295.5031	-501.36115	272.06378	1394.5902	-489.62595	304.70242	1388.3365	-564.08612	323.35941	1381.0437	-623.03217	297.29712	1421.8395	-635.5415	226.25438	1363.7858	-232.77324	167.634	1341.4231	-247.60916	157.41342	1351.3627	-153.64328	246.02719	1395.3986	-1608.025	195.87201	1400.275	-1592.7092	180.24979	1400.0704	-1697.7631	231.98375	1299.0638	-1357.9956	285.43848	1431.4694	-1284.5179	314.38306	1424.9287	-1210.2489	283.19461	1401.4348	-1363.4552	320.4325	1399.7363	-1267.1552
277	1.38	116.55659	1728.8135	-930.85468	286.04105	1696.5188	-852.85486	241.72336	1725.3457	-1005.864	2013.7659	28.058086	-2007.8893	1903.3888	23.744898	212.65593	156.41679	969.78204	-1062.5581	346.00095	977.15851	-958.5415	343.52875	973.07483	-916.23297	151.39862	973.99823	-813.32892	336.64859	985.80414	-933.45306	319.31528	1480.6592	-924.58508	163.01187	1432.2867	-925.13422	331.17184	1169.234	-934.59448	298.93307	1467.1956	-1086.2286	285.40866	1461.1921	-764.03235	220.53563	813.37708	-732.67993	187.87619	790.6427	-732.71173	235.23082	774.44501	-724.23065	189.99864	726.21771	-724.39771	260.30923	499.33527	-743.27924	235.51729	469.59164	-847.58087	319.21899	416.50702	-731.10254	295.46167	378.07196	-714.78156	342.5957	366.67664	-727.89545	308.66556	313.88873	-709.81213	251.77345	96.782448	-822.16803	282.0412	76.697289	-736.72687	331.20007	35.496521	-786.22058	111.26559	41.022625	-775.06921	155.16331	29.486383	-703.8136	128.79202	33.590595	-724.5835	207.48508	817.28265	-1143.4781	160.98584	781.58563	-1130.4878	208.12646	784.77979	-1148.9545	187.4715	721.66351	-1146.1281	255.23979	500.66043	-1124.5164	241.72539	482.85474	-1003.0986	306.05032	433.07224	-1136.8187	339.30884	382.92093	-1142.5179	289.0957	385.62897	-1154.4229	311.95432	323.8587	-1155.5308	287.92484	82.879715	-1132.2341	248.70497	100.29522	-1049.7096	328.37064	33.232109	-1073.6995	172.47186	28.90682	-1181.8795	119.21615	45.828327	-1119.1829	130.74092	35.015041	-1159.8734				272.04968	1394.5693	-489.62372	304.6546	1388.2969	-564.08643	323.33325	1381.0239	-623.03363	297.28021	1421.8225	-635.52264	226.27415	1363.7401	-232.77507	167.65765	1341.3722	-247.59525	157.53967	1351.2153	-153.33984	246.0894	1395.429	-1608.0149	195.92555	1400.2993	-1592.7146	180.32907	1400.083	-1697.7705	231.78047	1298.9698	-1357.8634	285.44955	1431.4768	-1284.5155	314.38019	1424.9283	-1210.2432	283.32541	1401.5841	-1363.5039	320.42911	1399.7339	-1267.149
